<svg width="13" height="12" viewBox="0 0 13 12" fill="none" xmlns="http://www.w3.org/2000/svg">
<path d="M6.01664 0C5.22875 0 4.44857 0.155188 3.72065 0.456703C2.99272 0.758217 2.33132 1.20015 1.77419 1.75728C0.649024 2.88245 0.0169111 4.40851 0.0169111 5.99973C0.011666 7.38515 0.491365 8.72874 1.37285 9.79757L0.172904 10.9975C0.0896532 11.0819 0.033258 11.189 0.0108345 11.3054C-0.0115889 11.4218 0.000964095 11.5422 0.0469097 11.6515C0.0967422 11.7594 0.177526 11.8501 0.279007 11.9121C0.380489 11.9741 0.49809 12.0045 0.616884 11.9995H6.01664C7.60787 11.9995 9.13393 11.3674 10.2591 10.2422C11.3843 9.11702 12.0164 7.59096 12.0164 5.99973C12.0164 4.40851 11.3843 2.88245 10.2591 1.75728C9.13393 0.632113 7.60787 0 6.01664 0ZM6.01664 10.7995H2.06282L2.6208 10.2415C2.73254 10.1291 2.79526 9.97707 2.79526 9.81857C2.79526 9.66006 2.73254 9.508 2.6208 9.39558C1.83518 8.61084 1.34596 7.57799 1.23647 6.47299C1.12699 5.36799 1.40402 4.25921 2.02036 3.33557C2.6367 2.41192 3.55423 1.73054 4.61662 1.40752C5.679 1.0845 6.82052 1.13983 7.84669 1.56408C8.87286 1.98833 9.72019 2.75524 10.2443 3.73417C10.7684 4.7131 10.9369 5.84347 10.7211 6.9327C10.5053 8.02193 9.91846 9.00263 9.06063 9.70772C8.20281 10.4128 7.12705 10.7986 6.01664 10.7995Z" fill="#7B7B7B"/>
</svg>
