<svg width="7" height="12" viewBox="0 0 7 12" fill="none" xmlns="http://www.w3.org/2000/svg">
<path d="M2.80078 6.00078L6.70078 9.90078C6.88411 10.0841 6.97578 10.3174 6.97578 10.6008C6.97578 10.8841 6.88411 11.1174 6.70078 11.3008C6.51745 11.4841 6.28411 11.5758 6.00078 11.5758C5.71745 11.5758 5.48411 11.4841 5.30078 11.3008L0.700781 6.70078C0.600781 6.60078 0.529948 6.49245 0.488281 6.37578C0.446615 6.25911 0.425781 6.13411 0.425781 6.00078C0.425781 5.86745 0.446615 5.74245 0.488281 5.62578C0.529948 5.50911 0.600781 5.40078 0.700781 5.30078L5.30078 0.700781C5.48411 0.517448 5.71745 0.425781 6.00078 0.425781C6.28411 0.425781 6.51745 0.517448 6.70078 0.700781C6.88411 0.884115 6.97578 1.11745 6.97578 1.40078C6.97578 1.68411 6.88411 1.91745 6.70078 2.10078L2.80078 6.00078Z" fill="#7B7B7B"/>
</svg>
