<svg width="5" height="8" viewBox="0 0 5 8" fill="none" xmlns="http://www.w3.org/2000/svg">
<path d="M3.40052 4.00054L0.800521 1.40054C0.678299 1.27832 0.617188 1.12276 0.617188 0.933875C0.617188 0.744986 0.678299 0.58943 0.800521 0.467208C0.922743 0.344986 1.0783 0.283875 1.26719 0.283875C1.45608 0.283875 1.61163 0.344986 1.73385 0.467208L4.80052 3.53387C4.86719 3.60054 4.91441 3.67276 4.94219 3.75054C4.96997 3.82832 4.98385 3.91165 4.98385 4.00054C4.98385 4.08943 4.96997 4.17276 4.94219 4.25054C4.91441 4.32832 4.86719 4.40054 4.80052 4.46721L1.73385 7.53387C1.61163 7.6561 1.45608 7.71721 1.26719 7.71721C1.0783 7.71721 0.922743 7.6561 0.800521 7.53387C0.678299 7.41165 0.617188 7.2561 0.617188 7.06721C0.617188 6.87832 0.678299 6.72276 0.800521 6.60054L3.40052 4.00054Z" fill="#007AE6"/>
</svg>
