<svg width="24" height="24" viewBox="0 0 24 24" fill="none" xmlns="http://www.w3.org/2000/svg">
<path d="M5.29279 5.29259C5.48031 5.10512 5.73462 4.99981 5.99979 4.99981C6.26495 4.99981 6.51926 5.10512 6.70679 5.29259L11.9998 10.5856L17.2928 5.29259C17.385 5.19708 17.4954 5.1209 17.6174 5.06849C17.7394 5.01608 17.8706 4.9885 18.0034 4.98734C18.1362 4.98619 18.2678 5.01149 18.3907 5.06177C18.5136 5.11205 18.6253 5.18631 18.7192 5.2802C18.8131 5.37409 18.8873 5.48574 18.9376 5.60864C18.9879 5.73154 19.0132 5.86321 19.012 5.99599C19.0109 6.12877 18.9833 6.25999 18.9309 6.382C18.8785 6.504 18.8023 6.61435 18.7068 6.70659L13.4138 11.9996L18.7068 17.2926C18.8889 17.4812 18.9897 17.7338 18.9875 17.996C18.9852 18.2582 18.88 18.509 18.6946 18.6944C18.5092 18.8798 18.2584 18.985 17.9962 18.9873C17.734 18.9895 17.4814 18.8888 17.2928 18.7066L11.9998 13.4136L6.70679 18.7066C6.51818 18.8888 6.26558 18.9895 6.00339 18.9873C5.74119 18.985 5.49038 18.8798 5.30497 18.6944C5.11956 18.509 5.01439 18.2582 5.01211 17.996C5.00983 17.7338 5.11063 17.4812 5.29279 17.2926L10.5858 11.9996L5.29279 6.70659C5.10532 6.51907 5 6.26476 5 5.99959C5 5.73443 5.10532 5.48012 5.29279 5.29259Z" fill="#7B7B7B"/>
</svg>
