<svg width="16" height="17" viewBox="0 0 16 17" fill="none" xmlns="http://www.w3.org/2000/svg">
<g clip-path="url(#clip0_3959_23812)">
<path d="M13.6531 2.8417C12.9109 2.09785 12.029 1.50798 11.0582 1.10595C10.0873 0.703923 9.04659 0.497667 7.99578 0.49903C3.57712 0.49903 -0.00488281 4.08103 -0.00488281 8.4997C-0.00488281 10.709 0.891117 12.7097 2.33912 14.1577C3.08134 14.9015 3.9632 15.4914 4.93406 15.8934C5.90492 16.2955 6.94564 16.5017 7.99645 16.5004C12.4151 16.5004 15.9971 12.9184 15.9971 8.4997C15.9971 6.29036 15.1011 4.2897 13.6531 2.8417ZM12.6251 13.1264C12.0179 13.7351 11.2964 14.2179 10.5021 14.5469C9.70777 14.8759 8.85624 15.0448 7.99645 15.0437C4.38112 15.0437 1.45045 12.113 1.45045 8.4977C1.44937 7.63791 1.6182 6.78638 1.94724 5.99204C2.27628 5.1977 2.75904 4.47621 3.36778 3.86903C3.97482 3.26028 4.69619 2.77751 5.49042 2.44846C6.28466 2.11942 7.13609 1.9506 7.99578 1.9517C11.6105 1.9517 14.5411 4.88236 14.5411 8.49703C14.5423 9.35673 14.3734 10.2082 14.0444 11.0024C13.7154 11.7966 13.2326 12.518 12.6238 13.125L12.6251 13.1264Z" fill="#576F8A"/>
<path d="M9.02454 8.50032L11.5945 5.93032C11.7213 5.79214 11.7898 5.61033 11.7858 5.42285C11.7817 5.23537 11.7054 5.05671 11.5727 4.92415C11.4401 4.79159 11.2614 4.71539 11.0739 4.71145C10.8864 4.7075 10.7046 4.77612 10.5665 4.90299L10.5672 4.90232L7.99721 7.47232L5.42721 4.90232C5.28902 4.77555 5.10722 4.70704 4.91974 4.71111C4.73226 4.71517 4.55359 4.79149 4.42104 4.92414C4.28848 5.05678 4.21228 5.23549 4.20833 5.42298C4.20439 5.61046 4.27301 5.79222 4.39987 5.93032L4.39921 5.92965L6.96921 8.49965L4.39921 11.0697C4.3269 11.136 4.26876 11.2163 4.2283 11.3057C4.18783 11.3951 4.16587 11.4917 4.16375 11.5898C4.16162 11.6879 4.17937 11.7855 4.21592 11.8765C4.25247 11.9676 4.30707 12.0503 4.37644 12.1197C4.4458 12.1891 4.5285 12.2438 4.61954 12.2804C4.71058 12.317 4.80809 12.3348 4.9062 12.3328C5.00431 12.3307 5.10099 12.3088 5.19041 12.2684C5.27983 12.228 5.36015 12.1699 5.42654 12.0977L5.42721 12.097L7.99721 9.52699L10.5672 12.097C10.6335 12.1693 10.7138 12.2274 10.8032 12.2679C10.8926 12.3084 10.9893 12.3303 11.0874 12.3324C11.1855 12.3346 11.283 12.3168 11.3741 12.2803C11.4652 12.2437 11.5479 12.1891 11.6173 12.1198C11.6867 12.0504 11.7414 11.9677 11.778 11.8767C11.8146 11.7856 11.8324 11.6881 11.8303 11.59C11.8283 11.4919 11.8064 11.3952 11.766 11.3058C11.7256 11.2164 11.6675 11.136 11.5952 11.0697L11.5945 11.069L9.02454 8.50032Z" fill="#576F8A"/>
</g>
<defs>
<clipPath id="clip0_3959_23812">
<rect width="16" height="16" fill="white" transform="translate(0 0.5)"/>
</clipPath>
</defs>
</svg>
