<svg width="16" height="17" viewBox="0 0 16 17" fill="none" xmlns="http://www.w3.org/2000/svg">
<path fill-rule="evenodd" clip-rule="evenodd" d="M12.5867 9.67333C12.3604 9.67333 12.1433 9.76324 11.9833 9.92327C11.8232 10.0833 11.7333 10.3003 11.7333 10.5267V12.2333H10.0267C9.80035 12.2333 9.5833 12.3232 9.42327 12.4833C9.26324 12.6433 9.17333 12.8603 9.17333 13.0867C9.17333 13.313 9.26324 13.53 9.42327 13.6901C9.5833 13.8501 9.80035 13.94 10.0267 13.94H11.7333V15.6467C11.7333 15.873 11.8232 16.09 11.9833 16.2501C12.1433 16.4101 12.3604 16.5 12.5867 16.5C12.813 16.5 13.03 16.4101 13.1901 16.2501C13.3501 16.09 13.44 15.873 13.44 15.6467V13.94H15.1467C15.373 13.94 15.59 13.8501 15.7501 13.6901C15.9101 13.53 16 13.313 16 13.0867C16 12.8603 15.9101 12.6433 15.7501 12.4833C15.59 12.3232 15.373 12.2333 15.1467 12.2333H13.44V10.5267C13.44 10.3003 13.3501 10.0833 13.1901 9.92327C13.03 9.76324 12.813 9.67333 12.5867 9.67333ZM2.27556 2.20667C2.12468 2.20667 1.97998 2.2666 1.87329 2.37329C1.7666 2.47998 1.70667 2.62467 1.70667 2.77555V14.1533C1.70667 14.3042 1.7666 14.4489 1.87329 14.5556C1.97998 14.6623 2.12468 14.7222 2.27556 14.7222H7.11111C7.33743 14.7222 7.55448 14.8121 7.71451 14.9722C7.87454 15.1322 7.96445 15.3492 7.96445 15.5756C7.96445 15.8019 7.87454 16.0189 7.71451 16.179C7.55448 16.339 7.33743 16.4289 7.11111 16.4289H2.27556C1.67204 16.4289 1.09324 16.1891 0.666495 15.7624C0.239745 15.3356 0 14.7568 0 14.1533V2.77555C0 2.17204 0.239745 1.59324 0.666495 1.16649C1.09324 0.739744 1.67204 0.5 2.27556 0.5H13.6533C14.2569 0.5 14.8356 0.739744 15.2624 1.16649C15.6891 1.59324 15.9289 2.17204 15.9289 2.77555V7.61111C15.9289 7.83743 15.839 8.05448 15.679 8.21451C15.5189 8.37454 15.3019 8.46444 15.0756 8.46444C14.8492 8.46444 14.6322 8.37454 14.4722 8.21451C14.3121 8.05448 14.2222 7.83743 14.2222 7.61111V2.77555C14.2222 2.62467 14.1623 2.47998 14.0556 2.37329C13.9489 2.2666 13.8042 2.20667 13.6533 2.20667H2.27556Z" fill="#576F8A"/>
</svg>
