<svg width="16" height="17" viewBox="0 0 16 17" fill="none" xmlns="http://www.w3.org/2000/svg">
<path d="M10.748 1.73296L10.7481 1.73306L14.767 5.75041C14.7671 5.75044 14.7671 5.75047 14.7671 5.7505C14.9487 5.93207 15.0853 6.15352 15.1661 6.39721C15.247 6.64094 15.2698 6.90019 15.2327 7.1543C15.1957 7.4084 15.0998 7.65035 14.9527 7.86085C14.8057 8.07135 14.6114 8.24459 14.3856 8.36676L14.3856 8.36677L9.87393 10.8073L9.63524 10.9364L9.53443 11.1884L8.04228 14.918L8.04211 14.9184C8.03906 14.926 8.03416 14.9328 8.02786 14.9381C8.02155 14.9433 8.01404 14.947 8.00599 14.9486C7.99793 14.9503 7.9896 14.9499 7.98172 14.9475C7.97385 14.9452 7.96668 14.9409 7.96087 14.9351L7.96071 14.9349L5.32825 12.3025L4.79792 11.7721L4.26759 12.3025L1.00388 15.5662L0.919264 15.5807L0.933829 15.4961L4.19754 12.2324L4.72787 11.7021L4.19754 11.1717L1.56375 8.53795C1.55793 8.53214 1.55366 8.52497 1.5513 8.51709C1.54895 8.50921 1.54858 8.50087 1.55025 8.49282C1.55191 8.48476 1.55555 8.47725 1.56084 8.47095C1.56612 8.46465 1.57289 8.45976 1.58053 8.45672L1.58095 8.45655L5.30733 6.9724L5.56018 6.87169L5.6896 6.63226L8.13164 2.11442C8.13167 2.11435 8.13171 2.11429 8.13175 2.11422C8.25392 1.88844 8.42712 1.6943 8.63756 1.54726C8.84806 1.40018 9.09 1.3043 9.3441 1.26725C9.59821 1.2302 9.85746 1.25301 10.1012 1.33387C10.3449 1.41472 10.5664 1.55138 10.748 1.73296Z" stroke="#576F8A" stroke-width="1.5"/>
</svg>
