<svg width="16" height="16" viewBox="0 0 16 16" fill="none" xmlns="http://www.w3.org/2000/svg">
<g clip-path="url(#clip0_3959_31970)">
<path d="M14.4544 6.4H11.9998V4C11.9998 4 11.9998 0 7.99982 0C3.99982 0 3.99982 4 3.99982 4V6.4H1.59869C1.18919 6.4 0.796471 6.56267 0.506915 6.85223C0.217359 7.14178 0.0546875 7.53451 0.0546875 7.944V14.464C0.0568021 14.8721 0.220406 15.2628 0.509733 15.5506C0.799061 15.8384 1.19058 16 1.59869 16H14.4544C14.8639 16 15.2567 15.8373 15.5462 15.5478C15.8358 15.2582 15.9984 14.8655 15.9984 14.456V7.944C15.9984 7.53451 15.8358 7.14178 15.5462 6.85223C15.2567 6.56267 14.8639 6.4 14.4544 6.4ZM7.99982 12.8C7.68337 12.8 7.37403 12.7062 7.11091 12.5304C6.84779 12.3545 6.64272 12.1047 6.52162 11.8123C6.40052 11.5199 6.36883 11.1982 6.43057 10.8879C6.4923 10.5775 6.64469 10.2924 6.86845 10.0686C7.09222 9.84487 7.37731 9.69248 7.68768 9.63074C7.99805 9.56901 8.31975 9.60069 8.61212 9.72179C8.90448 9.84289 9.15436 10.048 9.33017 10.3111C9.50598 10.5742 9.59982 10.8835 9.59982 11.2C9.59982 11.6243 9.43125 12.0313 9.13119 12.3314C8.83114 12.6314 8.42417 12.8 7.99982 12.8ZM10.3998 6.4H5.59982V4.4C5.59982 3.2 5.59982 1.6 7.99982 1.6C10.3998 1.6 10.3998 3.2 10.3998 4.4V6.4Z" fill="#C5C5C5"/>
</g>
<defs>
<clipPath id="clip0_3959_31970">
<rect width="16" height="16" fill="white"/>
</clipPath>
</defs>
</svg>
