<svg width="16" height="17" viewBox="0 0 16 17" fill="none" xmlns="http://www.w3.org/2000/svg">
<mask id="path-1-inside-1_3976_33988" fill="white">
<path fill-rule="evenodd" clip-rule="evenodd" d="M12.2276 10.7396C11.1191 11.8645 9.61555 12.4964 8.04783 12.4964C6.48011 12.4964 4.97659 11.8645 3.86804 10.7396C2.75949 9.61472 2.13672 8.08905 2.13672 6.49822C2.13672 4.90739 2.75949 3.38172 3.86804 2.25684C4.97659 1.13195 6.48011 0.5 8.04783 0.5C9.61555 0.5 11.1191 1.13195 12.2276 2.25684C13.3362 3.38172 13.9589 4.90739 13.9589 6.49822C13.9589 8.08905 13.3362 9.61472 12.2276 10.7396ZM7.32667 4.80415C7.64756 4.2189 7.80801 3.92755 8.04783 3.92755C8.28765 3.92755 8.4481 4.2189 8.76898 4.80415L8.85174 4.95496C8.94294 5.1212 8.98854 5.20346 9.05947 5.2583C9.13048 5.3134 9.21802 5.33328 9.39159 5.3727L9.39725 5.37398L9.5577 5.41169L9.56125 5.4125C10.1821 5.55506 10.4926 5.62637 10.5668 5.86755C10.641 6.10968 10.429 6.36121 10.0055 6.86355L10.0036 6.86583L9.89378 6.99607L9.89333 6.99661C9.77288 7.13935 9.71219 7.21126 9.68521 7.29941C9.65853 7.38738 9.66724 7.4812 9.68453 7.66741L9.68521 7.67473L9.7021 7.84868L9.70283 7.85641C9.76652 8.52392 9.79846 8.85866 9.60498 9.00719C9.41076 9.15629 9.11858 9.0209 8.53507 8.74755L8.38476 8.67729L8.38238 8.67618C8.21762 8.5998 8.13523 8.56161 8.04783 8.56161C7.96043 8.56161 7.87804 8.5998 7.71327 8.67619L7.7109 8.67729L7.56059 8.74755C6.97707 9.02004 6.6849 9.15629 6.49067 9.00719C6.2973 8.85809 6.32939 8.52133 6.39356 7.84868L6.41045 7.67473L6.41113 7.66742C6.42842 7.4812 6.43713 7.38738 6.41045 7.29941C6.38386 7.21171 6.32455 7.14144 6.20758 7.00283L6.20187 6.99607L6.0921 6.86583L6.09017 6.86354C5.6667 6.36121 5.45465 6.10968 5.52885 5.86755C5.60302 5.62637 5.91358 5.55506 6.53441 5.4125L6.53796 5.41169L6.69841 5.37398C6.87574 5.33371 6.96441 5.31314 7.03618 5.2583C7.10712 5.20346 7.15272 5.1212 7.24392 4.95496L7.32667 4.80415ZM0.793836 11.3415L1.9962 10.0979C2.49387 11.0316 3.20245 11.8355 4.06565 12.4474C4.92885 13.0594 5.9229 13.4617 6.96883 13.6224L4.9833 15.6777L4.97398 15.6873C4.5474 16.128 4.33321 16.3492 4.15213 16.4255C3.73534 16.6022 3.27215 16.4511 3.05296 16.0672C2.95696 15.8984 2.92657 15.5945 2.86657 14.9867C2.83297 14.6436 2.81617 14.4725 2.76497 14.3286C2.64897 14.0071 2.40818 13.7567 2.09699 13.6376C1.9589 13.5841 1.79294 13.5665 1.4632 13.5314L1.46101 13.5312C0.873033 13.4696 0.580243 13.4384 0.417048 13.3393C0.0466603 13.1122 -0.0997347 12.6339 0.0706597 12.2021C0.145325 12.0139 0.358798 11.7925 0.78469 11.351L0.793836 11.3415ZM11.0175 15.6785L9.03196 13.6232H9.03116C10.0771 13.4625 11.0711 13.0602 11.9343 12.4482C12.7975 11.8363 13.5061 11.0316 14.0038 10.0979L15.2062 11.3423C15.6381 11.7894 15.8541 12.0133 15.9293 12.2029C16.0997 12.6339 15.9533 13.113 15.5829 13.3401C15.4198 13.4392 15.1262 13.4704 14.539 13.5328L14.5203 13.5348C14.2007 13.5687 14.0388 13.5858 13.903 13.6384C13.5918 13.7575 13.3502 14.0079 13.235 14.3294C13.1843 14.4721 13.1673 14.6415 13.1335 14.9795L13.1326 14.9883L13.1317 14.9974C13.0723 15.5992 13.0426 15.9009 12.947 16.068C12.7278 16.4519 12.2647 16.603 11.8479 16.4271C11.6655 16.3495 11.4495 16.1264 11.0175 15.6785Z"/>
</mask>
<path d="M3.86804 10.7396L3.15578 11.4415L3.86804 10.7396ZM3.86804 2.25684L3.15578 1.55492V1.55492L3.86804 2.25684ZM7.32667 4.80415L8.20336 5.28521L8.20352 5.28492L7.32667 4.80415ZM8.76898 4.80415L7.89214 5.28492L7.8923 5.28521L8.76898 4.80415ZM8.85174 4.95496L9.72847 4.47398L9.72843 4.4739L8.85174 4.95496ZM9.05947 5.2583L9.67253 4.46826L9.67112 4.46717L9.05947 5.2583ZM9.39159 5.3727L9.61307 4.39753L9.61304 4.39752L9.39159 5.3727ZM9.39725 5.37398L9.62602 4.40047L9.61872 4.39882L9.39725 5.37398ZM9.5577 5.41169L9.32893 6.38518L9.33386 6.38631L9.5577 5.41169ZM9.56125 5.4125L9.33741 6.38713L9.33745 6.38714L9.56125 5.4125ZM10.5668 5.86755L11.5229 5.57456L11.5226 5.57361L10.5668 5.86755ZM10.0055 6.86355L10.7699 7.50826L10.7701 7.50809L10.0055 6.86355ZM10.0036 6.86583L9.23913 6.22112L9.23893 6.22136L10.0036 6.86583ZM9.89378 6.99607L10.6573 7.64187L10.6584 7.64054L9.89378 6.99607ZM9.89333 6.99661L9.12981 6.35082L9.12907 6.3517L9.89333 6.99661ZM9.68521 7.29941L8.72901 7.00666L8.72823 7.00924L9.68521 7.29941ZM9.68453 7.66741L10.6802 7.57501L10.6802 7.57498L9.68453 7.66741ZM9.68521 7.67473L8.68948 7.76713L8.68989 7.77136L9.68521 7.67473ZM9.7021 7.84868L10.6976 7.75374L10.6974 7.75204L9.7021 7.84868ZM9.70283 7.85641L8.70735 7.95134L8.70735 7.95139L9.70283 7.85641ZM9.60498 9.00719L10.2139 9.80041L10.2139 9.80041L9.60498 9.00719ZM8.53507 8.74755L8.95929 7.84199L8.95855 7.84165L8.53507 8.74755ZM8.38476 8.67729L8.80824 7.77138L8.80562 7.77016L8.38476 8.67729ZM8.38238 8.67618L8.80324 7.76906L8.80297 7.76893L8.38238 8.67618ZM7.71327 8.67619L8.13385 9.58344L8.13386 9.58344L7.71327 8.67619ZM7.7109 8.67729L7.29031 7.77003L7.28742 7.77138L7.7109 8.67729ZM7.56059 8.74755L7.98371 9.65363L7.98406 9.65346L7.56059 8.74755ZM6.49067 9.00719L5.88007 9.79913L5.88174 9.80041L6.49067 9.00719ZM6.39356 7.84868L5.39824 7.75204L5.39808 7.7537L6.39356 7.84868ZM6.41045 7.67473L7.40578 7.77136L7.40618 7.76709L6.41045 7.67473ZM6.41113 7.66742L5.41541 7.57498L5.4154 7.57506L6.41113 7.66742ZM6.41045 7.29941L7.36742 7.00923L7.36742 7.00923L6.41045 7.29941ZM6.20758 7.00283L5.44334 7.64776L5.44336 7.64779L6.20758 7.00283ZM6.20187 6.99607L5.43724 7.64054L5.43763 7.641L6.20187 6.99607ZM6.0921 6.86583L5.32738 7.5102L5.32746 7.51029L6.0921 6.86583ZM6.09017 6.86354L6.85489 6.21917L6.85474 6.219L6.09017 6.86354ZM5.52885 5.86755L4.57303 5.57361L4.57274 5.57456L5.52885 5.86755ZM6.53441 5.4125L6.75821 6.38714L6.75822 6.38713L6.53441 5.4125ZM6.53796 5.41169L6.76177 6.38633L6.76672 6.38517L6.53796 5.41169ZM6.69841 5.37398L6.47693 4.39879L6.46965 4.4005L6.69841 5.37398ZM7.03618 5.2583L7.64331 6.05293L7.64783 6.04943L7.03618 5.2583ZM7.24392 4.95496L6.36723 4.4739L6.36719 4.47398L7.24392 4.95496ZM1.9962 10.0979L2.87865 9.62754L2.23232 8.41506L1.27727 9.40286L1.9962 10.0979ZM0.793836 11.3415L0.0749113 10.6464L0.0741072 10.6473L0.793836 11.3415ZM4.06565 12.4474L3.48731 13.2632H3.48731L4.06565 12.4474ZM6.96883 13.6224L7.68804 14.3172L9.03061 12.9274L7.12069 12.634L6.96883 13.6224ZM4.9833 15.6777L5.70176 16.3733L5.70251 16.3725L4.9833 15.6777ZM4.97398 15.6873L4.25552 14.9918L4.2555 14.9918L4.97398 15.6873ZM4.15213 16.4255L3.76417 15.5038L3.76172 15.5048L4.15213 16.4255ZM3.05296 16.0672L2.18377 16.5617L2.18456 16.563L3.05296 16.0672ZM2.86657 14.9867L1.87133 15.0842L1.8714 15.085L2.86657 14.9867ZM2.76497 14.3286L3.70716 13.9935L3.70562 13.9892L2.76497 14.3286ZM2.09699 13.6376L1.73594 14.5701L1.73939 14.5715L2.09699 13.6376ZM1.4632 13.5314L1.56886 12.537L1.56861 12.537L1.4632 13.5314ZM1.46101 13.5312L1.56643 12.5368L1.56517 12.5367L1.46101 13.5312ZM0.417048 13.3393L-0.105708 14.1918L-0.102253 14.1939L0.417048 13.3393ZM0.0706597 12.2021L-0.858859 11.8333L-0.859551 11.835L0.0706597 12.2021ZM0.78469 11.351L0.0649613 10.6568L0.0649531 10.6568L0.78469 11.351ZM9.03196 13.6232L9.75117 12.9284L9.45633 12.6232H9.03196V13.6232ZM11.0175 15.6785L11.7372 14.9843L11.7367 14.9837L11.0175 15.6785ZM9.03116 13.6232L8.8793 12.6348L9.03116 14.6232V13.6232ZM11.9343 12.4482L12.5127 13.264H12.5127L11.9343 12.4482ZM14.0038 10.0979L14.7229 9.40309L13.7679 8.41465L13.1213 9.62754L14.0038 10.0979ZM15.2062 11.3423L14.487 12.0372L14.487 12.0372L15.2062 11.3423ZM15.9293 12.2029L16.8593 11.8352L16.8589 11.8341L15.9293 12.2029ZM15.5829 13.3401L16.1023 14.1947L16.1057 14.1926L15.5829 13.3401ZM14.539 13.5328L14.6444 14.5272L14.6446 14.5272L14.539 13.5328ZM14.5203 13.5348L14.6257 14.5292L14.6257 14.5292L14.5203 13.5348ZM13.903 13.6384L14.2606 14.5723L14.2641 14.5709L13.903 13.6384ZM13.235 14.3294L12.2936 13.992L12.2928 13.9943L13.235 14.3294ZM13.1335 14.9795L14.1285 15.0791L14.1285 15.0791L13.1335 14.9795ZM13.1326 14.9883L12.1376 14.8888L12.1375 14.8901L13.1326 14.9883ZM13.1317 14.9974L12.1366 14.8991L12.1366 14.8992L13.1317 14.9974ZM12.947 16.068L12.0789 15.5717L12.0786 15.5721L12.947 16.068ZM11.8479 16.4271L11.4565 17.3473L11.459 17.3483L11.8479 16.4271ZM8.04783 13.4964C9.88553 13.4964 11.645 12.7555 12.9399 11.4415L11.5154 10.0377C10.5932 10.9735 9.34558 11.4964 8.04783 11.4964V13.4964ZM3.15578 11.4415C4.4507 12.7555 6.21013 13.4964 8.04783 13.4964V11.4964C6.75008 11.4964 5.50248 10.9735 4.5803 10.0377L3.15578 11.4415ZM1.13672 6.49822C1.13672 8.34958 1.86135 10.128 3.15578 11.4415L4.5803 10.0377C3.65764 9.10143 3.13672 7.82851 3.13672 6.49822H1.13672ZM3.15578 1.55492C1.86135 2.86843 1.13672 4.64686 1.13672 6.49822H3.13672C3.13672 5.16793 3.65764 3.89502 4.5803 2.95875L3.15578 1.55492ZM8.04783 -0.5C6.21013 -0.5 4.4507 0.240919 3.15578 1.55492L4.5803 2.95875C5.50248 2.02299 6.75008 1.5 8.04783 1.5V-0.5ZM12.9399 1.55492C11.645 0.240919 9.88553 -0.5 8.04783 -0.5V1.5C9.34558 1.5 10.5932 2.02299 11.5154 2.95875L12.9399 1.55492ZM14.9589 6.49822C14.9589 4.64686 14.2343 2.86843 12.9399 1.55492L11.5154 2.95875C12.438 3.89502 12.9589 5.16793 12.9589 6.49822H14.9589ZM12.9399 11.4415C14.2343 10.128 14.9589 8.34958 14.9589 6.49822H12.9589C12.9589 7.82851 12.438 9.10143 11.5154 10.0377L12.9399 11.4415ZM8.04783 2.92755C7.44244 2.92755 7.08305 3.32726 6.91951 3.54392C6.7548 3.76212 6.59443 4.05964 6.44982 4.32338L8.20352 5.28492C8.28553 5.13534 8.34895 5.01991 8.40488 4.92398C8.46178 4.8264 8.49616 4.77486 8.5158 4.74885C8.5379 4.71956 8.51372 4.76013 8.44022 4.80995C8.39948 4.83757 8.34285 4.8686 8.27087 4.89204C8.19763 4.9159 8.12177 4.92755 8.04783 4.92755V2.92755ZM9.64583 4.32338C9.50123 4.05964 9.34086 3.76212 9.17615 3.54392C9.01261 3.32726 8.65321 2.92755 8.04783 2.92755V4.92755C7.97389 4.92755 7.89803 4.9159 7.82479 4.89204C7.75281 4.8686 7.69617 4.83757 7.65544 4.80995C7.58194 4.76013 7.55775 4.71956 7.57986 4.74885C7.59949 4.77486 7.63388 4.8264 7.69078 4.92399C7.74671 5.01991 7.81013 5.13534 7.89214 5.28492L9.64583 4.32338ZM9.72843 4.4739L9.64567 4.32309L7.8923 5.28521L7.97505 5.43603L9.72843 4.4739ZM9.67112 4.46717C9.70997 4.4972 9.74106 4.52799 9.76443 4.55487C9.78617 4.57986 9.79786 4.59762 9.79897 4.59932C9.7996 4.60028 9.79487 4.59308 9.78149 4.56959C9.76803 4.54599 9.75209 4.51704 9.72847 4.47398L7.97501 5.43595C8.02513 5.5273 8.17377 5.83755 8.44783 6.04943L9.67112 4.46717ZM9.61304 4.39752C9.56726 4.38713 9.53828 4.38052 9.51455 4.3747C9.49116 4.36897 9.48674 4.36732 9.49181 4.36895C9.49804 4.37094 9.5225 4.37905 9.55641 4.39563C9.59259 4.41334 9.63261 4.43729 9.67253 4.46826L8.44642 6.04834C8.73255 6.27038 9.08148 6.32773 9.17015 6.34787L9.61304 4.39752ZM9.61872 4.39882L9.61307 4.39753L9.17012 6.34786L9.17578 6.34915L9.61872 4.39882ZM9.78646 4.4382L9.62601 4.4005L9.16849 6.34747L9.32894 6.38517L9.78646 4.4382ZM9.78508 4.43787L9.78153 4.43706L9.33386 6.38631L9.33741 6.38713L9.78508 4.43787ZM11.5226 5.57361C11.3543 5.02612 10.9166 4.78501 10.6404 4.67454C10.3862 4.5729 10.0612 4.50127 9.78504 4.43787L9.33745 6.38714C9.49678 6.42372 9.6176 6.45155 9.71875 6.47779C9.82154 6.50445 9.87352 6.52187 9.89769 6.53154C9.92378 6.54198 9.87646 6.52757 9.80946 6.4693C9.77308 6.43766 9.7322 6.39425 9.69464 6.33768C9.65672 6.28056 9.6291 6.22039 9.61098 6.16149L11.5226 5.57361ZM10.7701 7.50809C10.9606 7.28206 11.1782 7.0279 11.3227 6.79487C11.4747 6.54963 11.6865 6.10834 11.5229 5.57456L9.61069 6.16054C9.57122 6.03173 9.57624 5.90819 9.59875 5.81645C9.6171 5.74161 9.64141 5.71113 9.62284 5.74108C9.60543 5.76916 9.57012 5.81932 9.50089 5.906C9.43261 5.9915 9.34935 6.09038 9.24092 6.219L10.7701 7.50809ZM10.768 7.51053L10.7699 7.50826L9.24105 6.21884L9.23913 6.22112L10.768 7.51053ZM10.6584 7.64054L10.7682 7.51029L9.23893 6.22136L9.12915 6.35161L10.6584 7.64054ZM10.6568 7.64241L10.6573 7.64186L9.13027 6.35028L9.12981 6.35082L10.6568 7.64241ZM10.6414 7.59216C10.6349 7.61341 10.6274 7.63395 10.6192 7.65354C10.611 7.67304 10.6027 7.69013 10.595 7.70461C10.58 7.73288 10.568 7.74964 10.5668 7.75138C10.5661 7.75231 10.571 7.74543 10.588 7.72471C10.596 7.71491 10.6055 7.70342 10.6174 7.68928C10.6293 7.67504 10.6423 7.65967 10.6576 7.64153L9.12907 6.3517C9.06199 6.43119 8.82977 6.67759 8.72902 7.00666L10.6414 7.59216ZM10.6802 7.57498C10.6781 7.55133 10.6762 7.5312 10.6745 7.51258C10.6729 7.49409 10.6716 7.47899 10.6706 7.4661C10.6696 7.45323 10.669 7.44407 10.6686 7.43754C10.6683 7.43104 10.6682 7.4286 10.6682 7.42919C10.6682 7.4299 10.6686 7.44844 10.6653 7.47784C10.6637 7.49291 10.6611 7.51045 10.6572 7.5299C10.6533 7.54944 10.6483 7.56944 10.6422 7.58958L8.72823 7.00924C8.63154 7.32812 8.67887 7.65273 8.68881 7.75985L10.6802 7.57498ZM10.6809 7.58233L10.6802 7.57501L8.68881 7.75981L8.68948 7.76713L10.6809 7.58233ZM10.6974 7.75204L10.6805 7.57809L8.68989 7.77136L8.70678 7.94531L10.6974 7.75204ZM10.6983 7.76147L10.6976 7.75374L8.70661 7.94361L8.70735 7.95134L10.6983 7.76147ZM10.2139 9.80041C10.6713 9.44933 10.7373 8.94257 10.7494 8.67074C10.7615 8.39813 10.7271 8.06349 10.6983 7.76142L8.70735 7.95139C8.72364 8.12205 8.7362 8.25439 8.74406 8.36675C8.75204 8.48073 8.75294 8.5457 8.75133 8.58209C8.74957 8.62183 8.74619 8.58394 8.77309 8.51132C8.80639 8.4214 8.87589 8.30621 8.99605 8.21397L10.2139 9.80041ZM8.11086 9.65312C8.37139 9.77516 8.67405 9.91982 8.93747 9.99621C9.21478 10.0766 9.73618 10.1672 10.2139 9.80041L8.99605 8.21397C9.05069 8.17202 9.11504 8.13574 9.1868 8.10977C9.25774 8.08409 9.32275 8.07322 9.37533 8.06992C9.47139 8.0639 9.52246 8.08346 9.49455 8.07536C9.46982 8.06819 9.41769 8.04979 9.31912 8.00703C9.2224 7.96507 9.10854 7.91191 8.95929 7.84199L8.11086 9.65312ZM7.96128 9.58319L8.11159 9.65346L8.95855 7.84165L8.80824 7.77138L7.96128 9.58319ZM7.96153 9.58331L7.96391 9.58442L8.80562 7.77016L8.80324 7.76906L7.96153 9.58331ZM8.04783 9.56161C7.99424 9.56161 7.94635 9.55547 7.90703 9.54716C7.87035 9.5394 7.84672 9.53092 7.84206 9.52921C7.83832 9.52784 7.84403 9.52978 7.86712 9.54003C7.89043 9.55038 7.91848 9.56336 7.9618 9.58344L8.80297 7.76893C8.72259 7.73167 8.4075 7.56161 8.04783 7.56161V9.56161ZM8.13386 9.58344C8.17718 9.56336 8.20523 9.55038 8.22854 9.54003C8.25163 9.52978 8.25734 9.52784 8.2536 9.52921C8.24894 9.53092 8.22531 9.5394 8.18863 9.54716C8.14931 9.55547 8.10141 9.56161 8.04783 9.56161V7.56161C7.68816 7.56161 7.37306 7.73167 7.29268 7.76894L8.13386 9.58344ZM8.13148 9.58454L8.13385 9.58344L7.29269 7.76893L7.29031 7.77003L8.13148 9.58454ZM7.98406 9.65346L8.13437 9.58319L7.28742 7.77138L7.13711 7.84165L7.98406 9.65346ZM5.88174 9.80041C6.36034 10.1678 6.88261 10.076 7.15874 9.99573C7.42134 9.91941 7.72397 9.77492 7.98371 9.65363L7.13746 7.84148C6.98785 7.91135 6.87389 7.96446 6.77681 8.00655C6.67795 8.04941 6.62559 8.06793 6.60055 8.0752C6.57229 8.08342 6.62325 8.06382 6.71929 8.06974C6.7719 8.07298 6.83705 8.08379 6.9082 8.10949C6.98019 8.1355 7.04477 8.17187 7.09961 8.21397L5.88174 9.80041ZM5.39808 7.7537C5.369 8.05854 5.3346 8.39443 5.34648 8.66771C5.35827 8.93885 5.42309 9.44679 5.88007 9.79913L7.10128 8.21525C7.22173 8.30812 7.29069 8.42364 7.32346 8.51276C7.34988 8.58462 7.34636 8.62159 7.34459 8.58082C7.34297 8.54348 7.34395 8.47747 7.35202 8.36247C7.35997 8.24909 7.37264 8.11557 7.38904 7.94365L5.39808 7.7537ZM5.41513 7.57809L5.39824 7.75204L7.38888 7.94531L7.40577 7.77136L5.41513 7.57809ZM5.4154 7.57506L5.41473 7.58237L7.40618 7.76709L7.40686 7.75978L5.4154 7.57506ZM5.45348 7.58959C5.44737 7.56945 5.44239 7.54945 5.43846 7.5299C5.43455 7.51046 5.43198 7.49292 5.43031 7.47784C5.42706 7.44844 5.42742 7.4299 5.42743 7.42918C5.42744 7.4286 5.42741 7.43104 5.42705 7.43754C5.42669 7.44406 5.42609 7.45323 5.42509 7.4661C5.42408 7.47899 5.4228 7.49409 5.42114 7.51258C5.41947 7.5312 5.41761 7.55133 5.41541 7.57498L7.40685 7.75986C7.41679 7.65275 7.46412 7.32812 7.36742 7.00923L5.45348 7.58959ZM5.44336 7.64779C5.47407 7.68418 5.49411 7.70797 5.51046 7.72798C5.52658 7.74772 5.53071 7.7536 5.52932 7.75166C5.5273 7.74883 5.51486 7.73125 5.49957 7.70226C5.4832 7.67125 5.46669 7.63316 5.45348 7.58959L7.36742 7.00923C7.26741 6.6794 7.03683 6.43493 6.9718 6.35787L5.44336 7.64779ZM5.43763 7.641L5.44334 7.64776L6.97182 6.3579L6.96612 6.35114L5.43763 7.641ZM5.32746 7.51029L5.43724 7.64054L6.96651 6.35161L6.85673 6.22136L5.32746 7.51029ZM5.32546 7.50792L5.32738 7.5102L6.85681 6.22145L6.85489 6.21917L5.32546 7.50792ZM4.57274 5.57456C4.40917 6.10834 4.62093 6.54963 4.77295 6.79486C4.91741 7.02789 5.13506 7.28205 5.32561 7.50809L6.85474 6.219C6.7463 6.09037 6.66304 5.9915 6.59476 5.906C6.52554 5.81932 6.49022 5.76916 6.47282 5.74108C6.45425 5.71113 6.47855 5.74161 6.49691 5.81645C6.51942 5.90819 6.52444 6.03173 6.48497 6.16054L4.57274 5.57456ZM6.31061 4.43787C6.03449 4.50127 5.70944 4.5729 5.45529 4.67454C5.17907 4.78501 4.74139 5.02612 4.57303 5.57361L6.48468 6.16149C6.46656 6.22039 6.43894 6.28056 6.40102 6.33768C6.36346 6.39425 6.32258 6.43766 6.2862 6.4693C6.2192 6.52757 6.17188 6.54197 6.19797 6.53154C6.22213 6.52187 6.27412 6.50445 6.37691 6.47779C6.47806 6.45155 6.59887 6.42372 6.75821 6.38714L6.31061 4.43787ZM6.31415 4.43705L6.3106 4.43787L6.75822 6.38713L6.76177 6.38632L6.31415 4.43705ZM6.46965 4.4005L6.3092 4.4382L6.76672 6.38517L6.92717 6.34747L6.46965 4.4005ZM6.42907 4.46369C6.4681 4.43386 6.50696 4.41092 6.54173 4.39406C6.57427 4.37829 6.5974 4.37068 6.60254 4.36904C6.60661 4.36774 6.6012 4.36964 6.57721 4.37553C6.55299 4.38149 6.52309 4.38833 6.47694 4.39881L6.91987 6.34915C7.01608 6.3273 7.35944 6.26979 7.6433 6.05292L6.42907 4.46369ZM6.36719 4.47398C6.34357 4.51704 6.32762 4.54599 6.31417 4.56959C6.30079 4.59308 6.29606 4.60028 6.29669 4.59932C6.2978 4.59762 6.30949 4.57986 6.33123 4.55487C6.3546 4.52799 6.38569 4.4972 6.42454 4.46717L7.64783 6.04943C7.92189 5.83755 8.07053 5.5273 8.12065 5.43595L6.36719 4.47398ZM6.44999 4.32309L6.36723 4.4739L8.1206 5.43603L8.20336 5.28521L6.44999 4.32309ZM1.27727 9.40286L0.0749118 10.6464L1.51276 12.0366L2.71512 10.793L1.27727 9.40286ZM4.64399 11.6316C3.90733 11.1094 3.30301 10.4236 2.87865 9.62754L1.11374 10.5684C1.68473 11.6395 2.49756 12.5616 3.48731 13.2632L4.64399 11.6316ZM7.12069 12.634C6.22839 12.4969 5.38037 12.1537 4.64399 11.6316L3.48731 13.2632C4.47734 13.9651 5.61741 14.4265 6.81697 14.6108L7.12069 12.634ZM5.70251 16.3725L7.68804 14.3172L6.24962 12.9276L4.26409 14.9829L5.70251 16.3725ZM5.69244 16.3829L5.70176 16.3733L4.26484 14.9821L4.25552 14.9918L5.69244 16.3829ZM4.54008 17.3471C4.8007 17.2374 5.00621 17.0603 5.15043 16.9268C5.30479 16.7838 5.48733 16.5948 5.69246 16.3829L4.2555 14.9918C4.03405 15.2205 3.8962 15.3624 3.79155 15.4593C3.67676 15.5656 3.68463 15.5373 3.76417 15.5038L4.54008 17.3471ZM2.18456 16.563C2.66409 17.4028 3.67606 17.7135 4.54253 17.3461L3.76172 15.5048C3.77359 15.4998 3.80231 15.494 3.83845 15.5058C3.87529 15.5178 3.9057 15.5439 3.92136 15.5713L2.18456 16.563ZM1.8714 15.085C1.90024 15.3771 1.92576 15.6385 1.95831 15.8463C1.98859 16.0397 2.04095 16.3106 2.18377 16.5617L3.92215 15.5727C3.96898 15.655 3.95814 15.6896 3.93422 15.5369C3.91257 15.3986 3.89289 15.2042 3.86173 14.8885L1.8714 15.085ZM1.82279 14.6636C1.81722 14.648 1.82239 14.6542 1.83241 14.7243C1.84336 14.801 1.85369 14.9041 1.87133 15.0842L3.86181 14.8893C3.83369 14.6021 3.80954 14.2813 3.70715 13.9935L1.82279 14.6636ZM1.73939 14.5715C1.76838 14.5826 1.80306 14.609 1.82432 14.6679L3.70562 13.9892C3.49489 13.4051 3.04799 12.9309 2.45459 12.7037L1.73939 14.5715ZM1.35754 14.5259C1.53168 14.5444 1.62807 14.5549 1.69903 14.5658C1.76292 14.5757 1.76061 14.5797 1.73594 14.5701L2.45804 12.705C2.16601 12.592 1.83809 12.5657 1.56886 12.537L1.35754 14.5259ZM1.3556 14.5256L1.35779 14.5259L1.56861 12.537L1.56643 12.5368L1.3556 14.5256ZM-0.102253 14.1939C0.150707 14.3476 0.424033 14.4038 0.615098 14.4357C0.819405 14.4698 1.07534 14.4963 1.35685 14.5258L1.56517 12.5367C1.25871 12.5046 1.07426 12.4847 0.944375 12.463C0.883395 12.4528 0.857793 12.4459 0.853028 12.4444C0.84916 12.4433 0.884373 12.4531 0.936349 12.4847L-0.102253 14.1939ZM-0.859551 11.835C-1.19098 12.675 -0.928411 13.6873 -0.105704 14.1918L0.9398 12.4868C0.976018 12.509 0.992546 12.5393 0.99755 12.5557C1.00229 12.5712 0.998192 12.5759 1.00087 12.5691L-0.859551 11.835ZM0.0649531 10.6568C-0.139951 10.8692 -0.322427 11.0579 -0.460375 11.2174C-0.591375 11.3688 -0.75675 11.5759 -0.858857 11.8333L1.00018 12.5708C0.972735 12.64 0.951429 12.6423 1.0523 12.5257C1.14623 12.4171 1.28344 12.2744 1.50443 12.0453L0.0649531 10.6568ZM0.0741072 10.6473L0.0649613 10.6568L1.50442 12.0453L1.51356 12.0358L0.0741072 10.6473ZM8.31275 14.318L10.2983 16.3733L11.7367 14.9837L9.75117 12.9284L8.31275 14.318ZM9.03116 14.6232H9.03196V12.6232H9.03116V14.6232ZM11.356 11.6324C10.6196 12.1545 9.77161 12.4977 8.8793 12.6348L9.18302 14.6116C10.3826 14.4273 11.5227 13.9659 12.5127 13.264L11.356 11.6324ZM13.1213 9.62754C12.6968 10.4239 12.0924 11.1104 11.356 11.6324L12.5127 13.264C13.5027 12.5622 14.3154 11.6392 14.8863 10.5684L13.1213 9.62754ZM15.9253 10.6475L14.7229 9.40309L13.2847 10.7928L14.487 12.0372L15.9253 10.6475ZM16.8589 11.8341C16.7563 11.5756 16.5897 11.3672 16.4575 11.2145C16.318 11.0534 16.1334 10.8628 15.9253 10.6475L14.487 12.0372C14.7109 12.2689 14.8503 12.4138 14.9456 12.5238C15.0481 12.6422 15.0272 12.6406 14.9998 12.5716L16.8589 11.8341ZM16.1057 14.1926C16.9284 13.6881 17.1912 12.6748 16.8593 11.8352L14.9994 12.5705C15.0016 12.5763 14.9978 12.5714 15.0024 12.5563C15.0073 12.5404 15.0236 12.51 15.0602 12.4876L16.1057 14.1926ZM14.6446 14.5272C14.9254 14.4974 15.1811 14.4707 15.3851 14.4365C15.5755 14.4046 15.8492 14.3484 16.1023 14.1947L15.0636 12.4855C15.1158 12.4538 15.1511 12.444 15.1469 12.4452C15.1419 12.4467 15.1161 12.4537 15.0548 12.464C14.9244 12.4858 14.7398 12.5059 14.4333 12.5384L14.6446 14.5272ZM14.6257 14.5292L14.6444 14.5272L14.4336 12.5384L14.4149 12.5404L14.6257 14.5292ZM14.2641 14.5709C14.2387 14.5808 14.2351 14.5772 14.2959 14.5678C14.364 14.5572 14.4566 14.5471 14.6257 14.5292L14.415 12.5404C14.155 12.5679 13.8317 12.5937 13.542 12.7058L14.2641 14.5709ZM14.1764 14.6667C14.1964 14.6108 14.2303 14.5839 14.2606 14.5723L13.5454 12.7045C12.9534 12.9312 12.504 13.4049 12.2936 13.992L14.1764 14.6667ZM14.1285 15.0791C14.1463 14.9015 14.1567 14.8 14.1676 14.7243C14.1776 14.6551 14.1827 14.649 14.1772 14.6645L12.2928 13.9943C12.1913 14.2797 12.1667 14.5973 12.1385 14.88L14.1285 15.0791ZM14.1277 15.0879L14.1285 15.0791L12.1385 14.88L12.1376 14.8888L14.1277 15.0879ZM14.1269 15.0957L14.1278 15.0866L12.1375 14.8901L12.1366 14.8991L14.1269 15.0957ZM13.8152 16.5642C13.9589 16.3129 14.011 16.0416 14.0409 15.8501C14.0732 15.6438 14.0984 15.3844 14.1269 15.0956L12.1366 14.8992C12.1057 15.2122 12.0863 15.4044 12.0649 15.5413C12.0548 15.606 12.0475 15.6359 12.045 15.6449C12.0425 15.6536 12.0503 15.6217 12.0789 15.5717L13.8152 16.5642ZM11.459 17.3483C12.3246 17.7138 13.3359 17.4036 13.8154 16.5638L12.0786 15.5721C12.0943 15.5446 12.1246 15.5188 12.1611 15.5069C12.1968 15.4952 12.2251 15.5009 12.2368 15.5058L11.459 17.3483ZM10.2978 16.3728C10.506 16.5886 10.6901 16.7798 10.8458 16.9244C10.9915 17.0597 11.1968 17.2368 11.4565 17.3473L12.2393 15.5068C12.3165 15.5397 12.3226 15.5665 12.2068 15.4589C12.1009 15.3605 11.961 15.2163 11.7372 14.9843L10.2978 16.3728Z" fill="#576F8A" mask="url(#path-1-inside-1_3976_33988)"/>
</svg>
