<svg width="16" height="16" viewBox="0 0 16 16" fill="none" xmlns="http://www.w3.org/2000/svg">
<path d="M11.2783 0.702627C11.0141 0.43846 10.6919 0.239642 10.3373 0.122014C9.98275 0.00438579 9.60558 -0.0288008 9.2359 0.0250984C8.86622 0.0789976 8.51423 0.218493 8.20799 0.432469C7.90175 0.646445 7.64971 0.928989 7.47196 1.25759L5.02982 5.77563L1.30344 7.25979C1.18037 7.30872 1.07138 7.38744 0.986264 7.4889C0.901144 7.59036 0.842556 7.71137 0.815761 7.84107C0.788965 7.97076 0.794801 8.10509 0.832745 8.23197C0.870689 8.35885 0.939553 8.47433 1.03315 8.56802L3.66721 11.2021L0.235098 14.6342L0 16L1.36581 15.7649L4.79792 12.3328L7.43038 14.9652C7.52396 15.0589 7.63933 15.1278 7.76613 15.1659C7.89293 15.2039 8.02719 15.2099 8.15687 15.1833C8.28655 15.1567 8.40759 15.0982 8.50912 15.0133C8.61066 14.9283 8.68951 14.8195 8.73862 14.6966L10.2308 10.967L14.7424 8.52644C15.071 8.34869 15.3536 8.09665 15.5675 7.79041C15.7815 7.48417 15.921 7.13218 15.9749 6.7625C16.0288 6.39282 15.9956 6.01566 15.878 5.66107C15.7604 5.30647 15.5615 4.98426 15.2974 4.72009L11.2783 0.702627Z" fill="#F9AA10"/>
</svg>
