<svg width="16" height="17" viewBox="0 0 16 17" fill="none" xmlns="http://www.w3.org/2000/svg">
<path d="M8 12.9444C8.25185 12.9444 8.46311 12.8591 8.63378 12.6884C8.80444 12.5178 8.88948 12.3068 8.88889 12.0556C8.88889 11.8037 8.80356 11.5924 8.63289 11.4218C8.46222 11.2511 8.25126 11.1661 8 11.1667C7.74815 11.1667 7.53689 11.252 7.36622 11.4227C7.19556 11.5933 7.11052 11.8043 7.11111 12.0556C7.11111 12.3074 7.19644 12.5187 7.36711 12.6893C7.53778 12.86 7.74874 12.945 8 12.9444ZM8 9.38889C8.25185 9.38889 8.46311 9.30356 8.63378 9.13289C8.80444 8.96222 8.88948 8.75126 8.88889 8.5V4.94444C8.88889 4.69259 8.80356 4.48133 8.63289 4.31067C8.46222 4.14 8.25126 4.05496 8 4.05556C7.74815 4.05556 7.53689 4.14089 7.36622 4.31156C7.19556 4.48222 7.11052 4.69319 7.11111 4.94444V8.5C7.11111 8.75185 7.19644 8.96311 7.36711 9.13378C7.53778 9.30444 7.74874 9.38948 8 9.38889ZM5.4 16.5C5.16296 16.5 4.93718 16.4556 4.72267 16.3667C4.50815 16.2778 4.31911 16.1519 4.15556 15.9889L0.511111 12.3444C0.348148 12.1815 0.222222 11.9924 0.133333 11.7773C0.0444445 11.5622 0 11.3364 0 11.1V5.9C0 5.66296 0.0444445 5.43718 0.133333 5.22267C0.222222 5.00815 0.348148 4.81911 0.511111 4.65556L4.15556 1.01111C4.31852 0.848148 4.50756 0.722222 4.72267 0.633333C4.93778 0.544445 5.16356 0.5 5.4 0.5H10.6C10.837 0.5 11.0631 0.544445 11.2782 0.633333C11.4933 0.722222 11.6821 0.848148 11.8444 1.01111L15.4889 4.65556C15.6519 4.81852 15.7778 5.00756 15.8667 5.22267C15.9556 5.43778 16 5.66356 16 5.9V11.1C16 11.337 15.9556 11.5631 15.8667 11.7782C15.7778 11.9933 15.6519 12.1821 15.4889 12.3444L11.8444 15.9889C11.6815 16.1519 11.4924 16.2778 11.2773 16.3667C11.0622 16.4556 10.8364 16.5 10.6 16.5H5.4ZM5.42222 14.7222H10.5778L14.2222 11.0778V5.92222L10.5778 2.27778H5.42222L1.77778 5.92222V11.0778L5.42222 14.7222Z" fill="#576F8A"/>
</svg>
