<svg width="36" height="37" viewBox="0 0 36 37" fill="none" xmlns="http://www.w3.org/2000/svg">
<path d="M25.1709 23.8698C27.5217 21.056 28.6966 17.4438 28.4508 13.7855C28.205 10.1271 26.5575 6.70457 23.8515 4.23047C21.1454 1.75636 17.5893 0.42141 13.9236 0.50358C10.258 0.58575 6.76525 2.07871 4.17277 4.67158C1.57814 7.26366 0.0836724 10.7569 0.000717276 14.4235C-0.0822378 18.0901 1.25272 21.6474 3.72747 24.3541C6.20222 27.0609 9.62591 28.7084 13.2853 28.9535C16.9446 29.1986 20.5574 28.0223 23.371 25.6697L33.8278 36.1265C34.0667 36.3644 34.3901 36.4978 34.7272 36.4975C35.0643 36.4971 35.3875 36.363 35.6259 36.1247C35.8642 35.8863 35.9983 35.5631 35.9986 35.226C35.999 34.8889 35.8656 34.5655 35.6277 34.3266L25.1709 23.8698ZM22.515 23.0138C20.6014 24.9276 18.0834 26.1187 15.3901 26.384C12.6968 26.6494 9.99475 25.9727 7.74443 24.4692C5.49411 22.9657 3.83474 20.7285 3.04904 18.1387C2.26335 15.5489 2.39995 12.7667 3.43557 10.2664C4.47119 7.76598 6.34176 5.70204 8.72854 4.42623C11.1153 3.15041 13.8706 2.74166 16.525 3.26962C19.1794 3.79758 21.5686 5.22958 23.2855 7.32163C25.0024 9.41367 25.9408 12.0363 25.9408 14.7427C25.9448 16.2793 25.6441 17.8015 25.056 19.2213C24.468 20.641 23.6044 21.93 22.515 23.0138Z" fill="#2C3744"/>
<path d="M19.4094 9.5758C19.2912 9.45757 19.1509 9.36379 18.9965 9.2998C18.8421 9.23581 18.6766 9.20287 18.5094 9.20287C18.3423 9.20287 18.1768 9.23581 18.0223 9.2998C17.8679 9.36379 17.7276 9.45757 17.6095 9.5758L14.2421 12.9431L10.8747 9.5758C10.7566 9.45722 10.6163 9.36309 10.4618 9.29881C10.3073 9.23452 10.1416 9.20135 9.97423 9.20117C9.80688 9.201 9.64113 9.23384 9.48648 9.2978C9.33183 9.36177 9.19131 9.45561 9.07297 9.57394C8.95463 9.69228 8.86079 9.8328 8.79683 9.98745C8.73286 10.1421 8.70002 10.3079 8.7002 10.4752C8.70037 10.6426 8.73355 10.8082 8.79783 10.9628C8.86211 11.1173 8.95624 11.2576 9.07483 11.3757L12.4422 14.7431L9.07483 18.1104C8.95624 18.2285 8.86211 18.3689 8.79783 18.5234C8.73355 18.6779 8.70037 18.8436 8.7002 19.0109C8.70002 19.1783 8.73286 19.344 8.79683 19.4987C8.86079 19.6533 8.95463 19.7939 9.07297 19.9122C9.19131 20.0305 9.33183 20.1244 9.48648 20.1883C9.64113 20.2523 9.80688 20.2851 9.97423 20.285C10.1416 20.2848 10.3073 20.2516 10.4618 20.1873C10.6163 20.1231 10.7566 20.0289 10.8747 19.9103L14.2421 16.543L17.6095 19.9103C17.8483 20.1482 18.1718 20.2816 18.5089 20.2812C18.846 20.2809 19.1692 20.1468 19.4075 19.9085C19.6459 19.6701 19.7799 19.3469 19.7803 19.0098C19.7806 18.6727 19.6472 18.3493 19.4094 18.1104L16.042 14.7431L19.4093 11.3757C19.5276 11.2575 19.6214 11.1173 19.6854 10.9628C19.7493 10.8084 19.7823 10.6429 19.7823 10.4758C19.7823 10.3086 19.7494 10.1431 19.6854 9.98868C19.6214 9.83426 19.5276 9.69396 19.4094 9.5758Z" fill="#2C3744"/>
</svg>
