<svg width="16" height="17" viewBox="0 0 16 17" fill="none" xmlns="http://www.w3.org/2000/svg">
<path fill-rule="evenodd" clip-rule="evenodd" d="M6.28033 2.78C6.13559 2.92475 6.08333 3.07693 6.08333 3.16634V3.74967H9.91667V3.16634C9.91667 3.07693 9.86441 2.92475 9.71967 2.78C9.57493 2.63526 9.42274 2.58301 9.33333 2.58301H6.66667C6.57726 2.58301 6.42507 2.63526 6.28033 2.78ZM11.4167 3.74967V3.16634C11.4167 2.58908 11.1356 2.0746 10.7803 1.71934C10.4251 1.36408 9.91059 1.08301 9.33333 1.08301H6.66667C6.08941 1.08301 5.57493 1.36408 5.21967 1.71934C4.86441 2.0746 4.58333 2.58908 4.58333 3.16634V3.74967H2C1.58579 3.74967 1.25 4.08546 1.25 4.49967C1.25 4.91389 1.58579 5.24967 2 5.24967H2.58333V13.833C2.58333 14.4103 2.86441 14.9247 3.21967 15.28C3.57493 15.6353 4.08941 15.9163 4.66667 15.9163H11.3333C11.9106 15.9163 12.4251 15.6353 12.7803 15.28C13.1356 14.9247 13.4167 14.4103 13.4167 13.833V5.24967H14C14.4142 5.24967 14.75 4.91389 14.75 4.49967C14.75 4.08546 14.4142 3.74967 14 3.74967H11.4167ZM4.08333 5.24967V13.833C4.08333 13.9224 4.13559 14.0746 4.28033 14.2193C4.42507 14.3641 4.57726 14.4163 4.66667 14.4163H11.3333C11.4227 14.4163 11.5749 14.3641 11.7197 14.2193C11.8644 14.0746 11.9167 13.9224 11.9167 13.833V5.24967H4.08333ZM6.66667 7.08301C7.08088 7.08301 7.41667 7.41879 7.41667 7.83301V11.833C7.41667 12.2472 7.08088 12.583 6.66667 12.583C6.25245 12.583 5.91667 12.2472 5.91667 11.833V7.83301C5.91667 7.41879 6.25245 7.08301 6.66667 7.08301ZM9.33333 7.08301C9.74755 7.08301 10.0833 7.41879 10.0833 7.83301V11.833C10.0833 12.2472 9.74755 12.583 9.33333 12.583C8.91912 12.583 8.58333 12.2472 8.58333 11.833V7.83301C8.58333 7.41879 8.91912 7.08301 9.33333 7.08301Z" fill="#D82C0D"/>
</svg>
