<svg width="16" height="17" viewBox="0 0 16 17" fill="none" xmlns="http://www.w3.org/2000/svg">
<g clip-path="url(#clip0_3966_14727)">
<path fill-rule="evenodd" clip-rule="evenodd" d="M2.28571 2.21428C2.13416 2.21428 1.98882 2.27449 1.88165 2.38165C1.77449 2.48882 1.71429 2.63416 1.71429 2.78571V14.2143C1.71429 14.3658 1.77449 14.5112 1.88165 14.6183C1.98882 14.7255 2.13416 14.7857 2.28571 14.7857H7.14286C7.37019 14.7857 7.5882 14.876 7.74895 15.0368C7.90969 15.1975 8 15.4155 8 15.6429C8 15.8702 7.90969 16.0882 7.74895 16.2489C7.5882 16.4097 7.37019 16.5 7.14286 16.5H2.28571C1.67951 16.5 1.09812 16.2592 0.66947 15.8305C0.240816 15.4019 0 14.8205 0 14.2143V2.78571C0 2.1795 0.240816 1.59812 0.66947 1.16947C1.09812 0.740815 1.67951 0.5 2.28571 0.5H13.7143C14.3205 0.5 14.9019 0.740815 15.3305 1.16947C15.7592 1.59812 16 2.1795 16 2.78571V7.64286C16 7.87018 15.9097 8.0882 15.7489 8.24895C15.5882 8.40969 15.3702 8.5 15.1429 8.5C14.9155 8.5 14.6975 8.40969 14.5368 8.24895C14.376 8.0882 14.2857 7.87018 14.2857 7.64286V2.78571C14.2857 2.63416 14.2255 2.48882 14.1183 2.38165C14.0112 2.27449 13.8658 2.21428 13.7143 2.21428H2.28571Z" fill="#576F8A"/>
<path fill-rule="evenodd" clip-rule="evenodd" d="M13.8855 16.2396C13.4695 16.4119 13.0235 16.5003 12.5731 16.4998C12.1228 16.5003 11.6768 16.4119 11.2607 16.2396C10.8447 16.0672 10.4668 15.8144 10.1488 15.4955C9.82991 15.1775 9.57705 14.7996 9.40471 14.3836C9.23237 13.9675 9.14395 13.5215 9.14453 13.0712C9.14396 12.6208 9.23238 12.1748 9.40472 11.7588C9.57706 11.3427 9.82992 10.9648 10.1488 10.6468C10.4668 10.328 10.8447 10.0751 11.2607 9.90277C11.6768 9.73043 12.1228 9.64201 12.5731 9.64258C13.0235 9.642 13.4695 9.73042 13.8855 9.90276C14.3016 10.0751 14.6795 10.328 14.9975 10.6468C15.3163 10.9648 15.5692 11.3427 15.7415 11.7588C15.9139 12.1748 16.0023 12.6208 16.0017 13.0712C16.0023 13.5215 15.9139 13.9675 15.7415 14.3836C15.5692 14.7996 15.3163 15.1775 14.9975 15.4955C14.6795 15.8144 14.3016 16.0672 13.8855 16.2396ZM14.5303 12.2835C14.6642 12.1496 14.6642 11.9325 14.5303 11.7986C14.3964 11.6647 14.1793 11.6647 14.0455 11.7986L12.2307 13.6134L11.4446 12.8272C11.3107 12.6933 11.0936 12.6933 10.9597 12.8272C10.8258 12.9611 10.8258 13.1782 10.9597 13.3121L11.9883 14.3407C12.1222 14.4746 12.3393 14.4746 12.4732 14.3407L14.5303 12.2835Z" fill="#576F8A"/>
</g>
<defs>
<clipPath id="clip0_3966_14727">
<rect width="16" height="16" fill="white" transform="translate(0 0.5)"/>
</clipPath>
</defs>
</svg>
