<svg width="16" height="16" viewBox="0 0 16 16" fill="none" xmlns="http://www.w3.org/2000/svg">
<path fill-rule="evenodd" clip-rule="evenodd" d="M12.2263 10.2396C11.1178 11.3645 9.61425 11.9964 8.04653 11.9964C6.4788 11.9964 4.97529 11.3645 3.86674 10.2396C2.75819 9.11472 2.13542 7.58905 2.13542 5.99822C2.13542 4.40739 2.75819 2.88172 3.86674 1.75684C4.97529 0.631953 6.4788 0 8.04653 0C9.61425 0 11.1178 0.631953 12.2263 1.75684C13.3349 2.88172 13.9576 4.40739 13.9576 5.99822C13.9576 7.58905 13.3349 9.11472 12.2263 10.2396ZM7.32537 4.30415C7.64626 3.7189 7.8067 3.42755 8.04653 3.42755C8.28635 3.42755 8.44679 3.7189 8.76768 4.30415L8.85044 4.45496C8.94164 4.6212 8.98724 4.70346 9.05817 4.7583C9.12918 4.8134 9.21672 4.83328 9.39029 4.8727L9.39595 4.87398L9.55639 4.91169L9.55995 4.9125C10.1808 5.05506 10.4913 5.12637 10.5655 5.36755C10.6397 5.60968 10.4277 5.86121 10.0042 6.36354L10.0023 6.36583L9.89248 6.49607L9.89202 6.49661C9.77157 6.63935 9.71089 6.71126 9.6839 6.79941C9.65723 6.88738 9.66594 6.9812 9.68323 7.16742L9.6839 7.17473L9.70079 7.34868L9.70153 7.35641C9.76522 8.02392 9.79716 8.35866 9.60368 8.50719C9.40946 8.65629 9.11728 8.5209 8.53377 8.24755L8.38346 8.17729L8.38109 8.17619C8.21632 8.0998 8.13393 8.06161 8.04653 8.06161C7.95912 8.06161 7.87674 8.0998 7.71197 8.17619L7.70959 8.17729L7.55928 8.24755C6.97577 8.52004 6.68359 8.65629 6.48937 8.50719C6.29599 8.35809 6.32808 8.02133 6.39226 7.34868L6.40915 7.17473L6.40983 7.16742C6.42712 6.9812 6.43582 6.88738 6.40915 6.79941C6.38256 6.71171 6.32325 6.64144 6.20628 6.50284L6.20057 6.49607L6.09079 6.36583L6.08887 6.36354C5.6654 5.86121 5.45335 5.60968 5.52755 5.36755C5.60172 5.12637 5.91228 5.05506 6.53311 4.9125L6.53666 4.91169L6.69711 4.87398C6.87444 4.83371 6.96311 4.81314 7.03488 4.7583C7.10582 4.70346 7.15142 4.6212 7.24262 4.45496L7.32537 4.30415ZM0.793836 10.8415L1.9962 9.59795C2.49387 10.5316 3.20245 11.3355 4.06565 11.9474C4.92885 12.5594 5.9229 12.9617 6.96883 13.1224L4.9833 15.1777L4.97398 15.1873C4.5474 15.628 4.33321 15.8492 4.15213 15.9255C3.73534 16.1022 3.27215 15.9511 3.05296 15.5672C2.95696 15.3984 2.92657 15.0945 2.86657 14.4867C2.83297 14.1436 2.81617 13.9725 2.76497 13.8286C2.64897 13.5071 2.40818 13.2567 2.09699 13.1376C1.9589 13.0841 1.79294 13.0665 1.4632 13.0314L1.46101 13.0312C0.873033 12.9696 0.580243 12.9384 0.417048 12.8393C0.0466603 12.6122 -0.0997347 12.1339 0.0706597 11.7021C0.145325 11.5139 0.358798 11.2925 0.78469 10.851L0.793836 10.8415ZM11.0175 15.1785L9.03196 13.1232H9.03116C10.0771 12.9625 11.0711 12.5602 11.9343 11.9482C12.7975 11.3363 13.5061 10.5316 14.0038 9.59795L15.2062 10.8423C15.6381 11.2894 15.8541 11.5133 15.9293 11.7029C16.0997 12.1339 15.9533 12.613 15.5829 12.8401C15.4198 12.9392 15.1262 12.9704 14.539 13.0328L14.5203 13.0348C14.2007 13.0687 14.0388 13.0858 13.903 13.1384C13.5918 13.2575 13.3502 13.5079 13.235 13.8294C13.1843 13.9721 13.1673 14.1415 13.1335 14.4795L13.1326 14.4883L13.1317 14.4974C13.0723 15.0992 13.0426 15.4009 12.947 15.568C12.7278 15.9519 12.2647 16.103 11.8479 15.9271C11.6655 15.8495 11.4495 15.6264 11.0175 15.1785Z" fill="white"/>
</svg>
