<svg width="16" height="16" viewBox="0 0 16 16" fill="none" xmlns="http://www.w3.org/2000/svg">
<path d="M2.28386 13.6666C2.17086 13.6666 2.06938 13.639 1.97941 13.5837C1.88945 13.5285 1.81947 13.4557 1.76949 13.3653C1.71751 13.2756 1.68891 13.1783 1.68371 13.0736C1.67851 12.9689 1.70676 12.8652 1.76846 12.7626L7.47563 2.90402C7.53733 2.80133 7.61454 2.72542 7.70728 2.67627C7.80001 2.62712 7.89766 2.60254 8.00023 2.60254C8.10279 2.60254 8.20044 2.62712 8.29318 2.67627C8.38591 2.72542 8.46313 2.80133 8.52483 2.90402L14.232 12.7626C14.2937 12.8652 14.3219 12.9689 14.3167 13.0736C14.3115 13.1783 14.2829 13.2756 14.231 13.3653C14.181 13.4557 14.111 13.5285 14.021 13.5837C13.9311 13.639 13.8296 13.6666 13.7166 13.6666H2.28386ZM8.00023 11.8717C8.15279 11.8717 8.28068 11.8201 8.38388 11.7169C8.48708 11.6137 8.53868 11.4858 8.53868 11.3333C8.53868 11.1807 8.48708 11.0528 8.38388 10.9496C8.28068 10.8464 8.15279 10.7948 8.00023 10.7948C7.84766 10.7948 7.71978 10.8464 7.61658 10.9496C7.51338 11.0528 7.46178 11.1807 7.46178 11.3333C7.46178 11.4858 7.51338 11.6137 7.61658 11.7169C7.71978 11.8201 7.84766 11.8717 8.00023 11.8717ZM8.00044 10.1282C8.14218 10.1282 8.26091 10.0802 8.35663 9.98441C8.45235 9.88857 8.50021 9.76983 8.50021 9.62817V7.29481C8.50021 7.15314 8.45228 7.03439 8.35641 6.93857C8.26053 6.84274 8.14173 6.79482 8.00001 6.79482C7.85828 6.79482 7.73955 6.84274 7.64383 6.93857C7.54811 7.03439 7.50024 7.15314 7.50024 7.29481V9.62817C7.50024 9.76983 7.54818 9.88857 7.64404 9.98441C7.73992 10.0802 7.85872 10.1282 8.00044 10.1282Z" fill="#D82C0D"/>
</svg>
