<svg width="12" height="12" viewBox="0 0 12 12" fill="none" xmlns="http://www.w3.org/2000/svg">
<path d="M11.269 6.31671C11.5136 5.99345 11.6491 5.59738 11.6491 5.1853C11.6491 4.5315 11.2836 3.91264 10.6953 3.56754C10.5438 3.4787 10.3714 3.43195 10.1958 3.43212H6.70404L6.7914 1.64253C6.81179 1.21006 6.6589 0.799428 6.36184 0.486359C6.21606 0.33205 6.04019 0.209276 5.84509 0.125624C5.64998 0.0419728 5.4398 -0.000779051 5.22752 1.07465e-05C4.47033 1.07465e-05 3.80051 0.509657 3.59956 1.23918L2.34874 5.76775H0.465962C0.208227 5.76775 0 5.97598 0 6.23372V11.534C0 11.7918 0.208227 12 0.465962 12H9.22169C9.35565 12 9.4867 11.9738 9.60756 11.9214C10.3007 11.6258 10.7477 10.9487 10.7477 10.1973C10.7477 10.0138 10.7215 9.83327 10.6691 9.65854C10.9137 9.33528 11.0491 8.93921 11.0491 8.52712C11.0491 8.34365 11.0229 8.16309 10.9705 7.98835C11.2151 7.66509 11.3506 7.26903 11.3506 6.85694C11.3476 6.67347 11.3214 6.49145 11.269 6.31671ZM1.04842 10.9516V6.81617H2.22788V10.9516H1.04842ZM10.3152 5.81144L9.99635 6.0881L10.1988 6.45796C10.2654 6.57979 10.3 6.7166 10.2992 6.85548C10.2992 7.09575 10.1944 7.32436 10.0138 7.48162L9.69493 7.75829L9.89734 8.12814C9.96402 8.24998 9.99859 8.38678 9.99781 8.52567C9.99781 8.76593 9.89297 8.99454 9.71241 9.1518L9.39351 9.42847L9.59591 9.79833C9.6626 9.92016 9.69717 10.057 9.69639 10.1959C9.69639 10.522 9.50418 10.8162 9.20713 10.9501H3.15981V6.76957L4.60866 1.52021C4.64602 1.38567 4.72622 1.26697 4.8371 1.18209C4.94799 1.09722 5.08351 1.05081 5.22315 1.04988C5.33381 1.04988 5.44302 1.08192 5.53039 1.14744C5.67455 1.2552 5.75172 1.41828 5.74299 1.59156L5.6032 4.48053H10.1813C10.4405 4.63925 10.6006 4.90718 10.6006 5.1853C10.6006 5.42556 10.4958 5.65272 10.3152 5.81144Z" fill="#7B7B7B"/>
</svg>
