<svg width="12" height="12" viewBox="0 0 12 12" fill="none" xmlns="http://www.w3.org/2000/svg">
<g clip-path="url(#clip0_3445_56139)">
<path d="M6.33594 0C5.14925 0 3.98921 0.351894 3.00252 1.01118C2.01582 1.67047 1.24679 2.60754 0.792663 3.7039C0.338537 4.80026 0.219717 6.00665 0.451228 7.17054C0.68274 8.33443 1.25418 9.40352 2.0933 10.2426C2.93241 11.0818 4.00151 11.6532 5.1654 11.8847C6.32928 12.1162 7.53568 11.9974 8.63204 11.5433C9.7284 11.0891 10.6655 10.3201 11.3248 9.33342C11.984 8.34672 12.3359 7.18669 12.3359 6C12.3342 4.40924 11.7015 2.88414 10.5766 1.75931C9.45179 0.634472 7.9267 0.00176457 6.33594 0ZM6.33594 10.6667C5.41296 10.6667 4.51071 10.393 3.74328 9.88019C2.97585 9.36741 2.37771 8.63858 2.0245 7.78585C1.67129 6.93313 1.57888 5.99482 1.75894 5.08958C1.93901 4.18433 2.38346 3.35281 3.03611 2.70017C3.68875 2.04752 4.52027 1.60307 5.42552 1.423C6.33076 1.24294 7.26907 1.33535 8.12179 1.68856C8.97452 2.04177 9.70335 2.63991 10.2161 3.40734C10.7289 4.17477 11.0026 5.07702 11.0026 6C11.0013 7.23727 10.5092 8.42348 9.63431 9.29837C8.75943 10.1733 7.57321 10.6653 6.33594 10.6667ZM10.1137 6C10.1137 6.17681 10.0435 6.34638 9.91845 6.4714C9.79343 6.59643 9.62386 6.66667 9.44705 6.66667H6.33594C6.15913 6.66667 5.98956 6.59643 5.86453 6.4714C5.73951 6.34638 5.66927 6.17681 5.66927 6V2.88889C5.66927 2.71208 5.73951 2.54251 5.86453 2.41748C5.98956 2.29246 6.15913 2.22222 6.33594 2.22222C6.51275 2.22222 6.68232 2.29246 6.80734 2.41748C6.93237 2.54251 7.00261 2.71208 7.00261 2.88889V5.33333H9.44705C9.62386 5.33333 9.79343 5.40357 9.91845 5.52859C10.0435 5.65362 10.1137 5.82319 10.1137 6Z" fill="#7B7B7B"/>
</g>
<defs>
<clipPath id="clip0_3445_56139">
<rect width="12" height="12" fill="white"/>
</clipPath>
</defs>
</svg>
